<svg xmlns="http://www.w3.org/2000/svg" xmlns:xlink="http://www.w3.org/1999/xlink" version="1.1" x="0px" y="0px" viewBox="0 0 128 128" style="enable-background:new 0 0 128 128;" xml:space="preserve"><g><path d="M85.1513977,72.7002029c-1.9600067,0-4.0078049,0.8222961-5.628006,2.6913986l-8.0672989,10.3866959   c-0.9317017-1.5389938-7.9677963-14.3827972-12.3017998-17.8105011c-1.9228973-1.5204926-4.3876991-2.7372971-7.0180969-3.6669998   c-1.0981026,1.1689072-2.3486023,2.1875-3.7220993,3.0312042c3.1141968,0.847702,6.1493988,2.1044998,8.2587967,3.7724991   c1.4560013,1.152298,14.3719978,21.7226028,14.3719978,21.7226028l3.5694046-4.5957031l7.9920959-10.2871017   c0.922905-1.027298,1.8897018-1.2440948,2.5450058-1.2440948c0.7352982,0,1.447197,0.2714996,1.9540939,0.7460938   c0.9883041,0.9258041,1.4668045,3.3691025-0.2538986,5.3672028l-0.0772018,0.0917969l-0.0731964,0.0937042l-14.0429993,18.4375   c-0.782196,0.9843979-1.8241959,1.5507965-2.8612976,1.5507965c-0.6416016,0-1.2490005-0.2186966-1.7793045-0.6327972   L56.3456955,82.5967026v30.8827972c0,2.4922028-2.0028992,4.5214996-4.4639015,4.5214996H25.9580002   c-1.2275047,0-2.3603039-0.4628983-3.1904049-1.3047028c-0.7695961-0.7773972-1.1855946-1.8007965-1.1718998-2.9179993   l0.0956993-32.3182983l-11.0849991,26.4668045c-0.9306002,2.0409927-2.6551995,2.9706955-3.8709998,2.9706955   c-0.3311,0-0.6455998-0.0663986-0.9355998-0.1933975c-1.6483998-0.7304993-2.2890999-3.3964996-1.3710999-5.705101   l3.0370998-7.642601c3.0907998-7.7792969,6.5722995-16.5390015,7.0507998-17.7401962   c3.2471008-6.510704,8.1382008-10.6328049,14.8115005-12.4794998c-1.3193016-0.8486023-2.5140972-1.8662033-3.5683002-3.0195007   c-5.960001,2.2431946-11.2680998,6.4979935-14.8985004,13.8661957   c-0.0145998,0.0312042-6.2225995,15.6562042-10.1493998,25.5371017c-1.7372999,4.3691025-0.1846,9.222702,3.4677999,10.8398972   c0.8213038,0.363205,1.6865001,0.5371017,2.5556998,0.5371017c2.9979997,0,6.0498004-2.0488968,7.5400004-5.375   l3.3563995-8.0157013l-0.0361004,12.2598038c-0.0566006,4.5468979,3.6875,8.2343979,8.3623047,8.2343979H51.881794   c4.6748009,0,8.4639015-3.8144989,8.4639015-8.5214996v-16.25l4.5371017,7.6836014   c1.3993988,1.392601,3.1484985,2.0741959,4.9141006,2.0741959c2.1942978,0,4.4159927-1.0546951,6.0233994-3.0995941   l14.0634995-18.4648056c3.0615005-3.556694,2.5849991-8.4335938-0.0440063-10.8964996   C88.5956955,73.3622971,86.9091949,72.7002029,85.1513977,72.7002029z"></path><path d="M120,6.0009999H38c-4.3994064,0-8,3.5996003-8,8V36.455101c1.2479992-0.7276001,2.5858955-1.3125,4-1.7246017V14.0010004   c0-2.2071009,1.7948952-4,4-4h82c2.2060928,0,4,1.7928991,4,4v60c0,2.205101-1.7939072,4-4,4H95.8495941   c0.1952972,1.3115005,0.1743011,2.6640015-0.0673981,4H120c4.4003906,0,8-3.5996017,8-8v-60   C128,9.6006002,124.4003906,6.0009999,120,6.0009999z"></path><path d="M39.0312958,66.0009995c7.7332993,0,14-6.267601,14-14.0019989c0-7.732399-6.2667007-13.9980011-14-13.9980011   c-7.7294998,0-14,6.2656021-14,13.9980011C25.0312958,59.7333984,31.301796,66.0009995,39.0312958,66.0009995z    M39.0312958,42.0009995c5.5135994,0,10,4.4844017,10,9.9980011c0,5.5136986-4.4864006,10.0019989-10,10.0019989   c-5.5136986,0-10-4.4883003-10-10.0019989C29.0312958,46.4854012,33.5175972,42.0009995,39.0312958,42.0009995z"></path></g></svg>