<svg xmlns="http://www.w3.org/2000/svg" xmlns:xlink="http://www.w3.org/1999/xlink" version="1.0" x="0px" y="0px" viewBox="0 0 100 100" enable-background="new 0 0 100 100" xml:space="preserve"><path d="M75.7661819,44.3640556c-0.9242477-0.9278145-1.2370834-2.4218674-1.2222443-3.5327873  c0.5246353-3.2647629,0.4001846-6.1089325,0.4001846-6.1089325c-0.2491913-4.149334-1.8296585-8.0479813-4.8056259-11.0183163  l-0.0459595-0.0550175c-5.944519-5.9450912-14.9106789-7.0140553-21.9501381-3.2249432  c-4.5729942-3.5803146-10.2917328-5.6389608-16.3661289-5.6389608c-14.6366615,0-26.5431156,11.9066668-26.5431156,26.543045  s11.7437534,26.5430412,26.3801308,26.5430412c3.1663589,0,6.6681061-0.5548172,9.0064087-1.6353378v-8.0703201  c0,0.0168419-0.8169212,0.1226692-1.2898903,0.3351059c-2.4282188,1.0946503-4.9429207,1.6488266-7.6351681,1.6488266  c-10.3785076,0-18.7806435-8.4428825-18.7806435-18.8213158s8.4632215-18.8214626,18.8417282-18.8214626  c3.7677765,0,7.3537254,1.1164875,10.3616676,3.0949268c-5.5135117,7.2847939-4.9700394,17.6954803,1.6783714,24.3413925  c2.9688339,2.9726906,6.7057838,4.7229233,10.5646095,5.2641106c0,0,2.6454353,0.3224716,5.6291161,0.0737877  c1.0301437,0.0694313,2.4382057,0.4658318,3.365593,1.3916473L82.680336,75.9939499  c3.4064102,3.4080582,8.9327621,3.4080582,12.3391724-0.0019913l0.0676498-12.3069267L75.7661819,44.3640556z   M53.7726517,39.9016685c-3.5108795,0-6.3572617-2.846241-6.3572617-6.3572617c0-3.5110245,2.8463821-6.3572655,6.3572617-6.3572655  c3.5108833,0,6.3572655,2.846241,6.3572655,6.3572655C60.1299171,37.0554276,57.283535,39.9016685,53.7726517,39.9016685z"></path><path d="M46.3766823,61.1658325l0.0019989,21.5434647c-0.0014267,4.8185425,3.9798546,8.7261124,8.8000374,8.7236862  l8.8240128-8.654541V61.7390633c-2.3383026,0.8314781-5.2469101,1.2990265-8.0296402,1.2990265  C52.6017876,63.0380898,49.3169746,62.3648148,46.3766823,61.1658325z"></path></svg>